<svg xmlns="http://www.w3.org/2000/svg" xmlns:xlink="http://www.w3.org/1999/xlink" width="1200" height="1200" viewBox="0 0 1200 1200"><g><g transform="translate(600 600) scale(0.69 0.69) rotate(-15) translate(-600 -600)" style="fill:#000000"><svg fill="#000000" xmlns="http://www.w3.org/2000/svg" xmlns:xlink="http://www.w3.org/1999/xlink" version="1.1" x="0px" y="0px" viewBox="0 0 100 100" enable-background="new 0 0 100 100" xml:space="preserve"><path d="M80,18.8c2.1,0,3.8-1.7,3.8-3.8s-1.7-3.8-3.8-3.8h-7.5V7.5C72.5,6.1,71.4,5,70,5H30c-1.4,0-2.5,1.1-2.5,2.5v3.8H20  c-2.1,0-3.8,1.7-3.8,3.8s1.7,3.8,3.8,3.8h7.5v2.5H20c-2.1,0-3.8,1.7-3.8,3.8s1.7,3.8,3.8,3.8h7.5v2.5H20c-2.1,0-3.8,1.7-3.8,3.8  s1.7,3.8,3.8,3.8h7.5v2.5H20c-2.1,0-3.8,1.7-3.8,3.8s1.7,3.8,3.8,3.8h7.5v2.5H20c-2.1,0-3.8,1.7-3.8,3.8s1.7,3.8,3.8,3.8h7.5v2.5H20  c-2.1,0-3.8,1.7-3.8,3.8s1.7,3.8,3.8,3.8h7.5v2.5H20c-2.1,0-3.8,1.7-3.8,3.8s1.7,3.8,3.8,3.8h7.5v2.5H20c-2.1,0-3.8,1.7-3.8,3.8  s1.7,3.8,3.8,3.8h7.5v3.8c0,1.4,1.1,2.5,2.5,2.5h40c1.4,0,2.5-1.1,2.5-2.5v-3.8H80c2.1,0,3.8-1.7,3.8-3.8s-1.7-3.8-3.8-3.8h-7.5  v-2.5H80c2.1,0,3.8-1.7,3.8-3.8s-1.7-3.8-3.8-3.8h-7.5v-2.5H80c2.1,0,3.8-1.7,3.8-3.8s-1.7-3.8-3.8-3.8h-7.5v-2.5H80  c2.1,0,3.8-1.7,3.8-3.8s-1.7-3.8-3.8-3.8h-7.5v-2.5H80c2.1,0,3.8-1.7,3.8-3.8s-1.7-3.8-3.8-3.8h-7.5v-2.5H80c2.1,0,3.8-1.7,3.8-3.8  s-1.7-3.8-3.8-3.8h-7.5v-2.5H80c2.1,0,3.8-1.7,3.8-3.8s-1.7-3.8-3.8-3.8h-7.5v-2.5H80z M72.5,13.8H80c0.7,0,1.3,0.6,1.3,1.3  s-0.6,1.3-1.3,1.3h-7.5V13.8z M27.5,86.3H20c-0.7,0-1.3-0.6-1.3-1.3s0.6-1.3,1.3-1.3h7.5V86.3z M27.5,76.3H20  c-0.7,0-1.3-0.6-1.3-1.3s0.6-1.3,1.3-1.3h7.5V76.3z M27.5,66.3H20c-0.7,0-1.3-0.6-1.3-1.3s0.6-1.3,1.3-1.3h7.5V66.3z M27.5,56.3H20  c-0.7,0-1.3-0.6-1.3-1.3s0.6-1.3,1.3-1.3h7.5V56.3z M27.5,46.3H20c-0.7,0-1.3-0.6-1.3-1.3s0.6-1.3,1.3-1.3h7.5V46.3z M27.5,36.3H20  c-0.7,0-1.3-0.6-1.3-1.3s0.6-1.3,1.3-1.3h7.5V36.3z M27.5,26.3H20c-0.7,0-1.3-0.6-1.3-1.3s0.6-1.3,1.3-1.3h7.5V26.3z M27.5,16.3H20  c-0.7,0-1.3-0.6-1.3-1.3s0.6-1.3,1.3-1.3h7.5V16.3z M46.3,90c0-2.1,1.7-3.8,3.8-3.8s3.8,1.7,3.8,3.8H46.3z M67.5,90H56.3  c0-3.4-2.8-6.3-6.3-6.3s-6.3,2.8-6.3,6.3H32.5V10h35V90z M80,83.8c0.7,0,1.3,0.6,1.3,1.3s-0.6,1.3-1.3,1.3h-7.5v-2.5H80z M80,73.8  c0.7,0,1.3,0.6,1.3,1.3s-0.6,1.3-1.3,1.3h-7.5v-2.5H80z M80,63.8c0.7,0,1.3,0.6,1.3,1.3s-0.6,1.3-1.3,1.3h-7.5v-2.5H80z M80,53.8  c0.7,0,1.3,0.6,1.3,1.3s-0.6,1.3-1.3,1.3h-7.5v-2.5H80z M80,43.8c0.7,0,1.3,0.6,1.3,1.3s-0.6,1.3-1.3,1.3h-7.5v-2.5H80z M80,33.8  c0.7,0,1.3,0.6,1.3,1.3s-0.6,1.3-1.3,1.3h-7.5v-2.5H80z M80,23.8c0.7,0,1.3,0.6,1.3,1.3s-0.6,1.3-1.3,1.3h-7.5v-2.5H80z"></path><path d="M55,56.3c0.7,0,1.3-0.6,1.3-1.3V45c0-0.7-0.6-1.3-1.3-1.3s-1.3,0.6-1.3,1.3v10C53.8,55.7,54.3,56.3,55,56.3z"></path><path d="M50,56.3c0.7,0,1.3-0.6,1.3-1.3V45c0-0.7-0.6-1.3-1.3-1.3s-1.3,0.6-1.3,1.3v10C48.8,55.7,49.3,56.3,50,56.3z"></path><path d="M45,56.3c0.7,0,1.3-0.6,1.3-1.3V45c0-0.7-0.6-1.3-1.3-1.3s-1.3,0.6-1.3,1.3v10C43.8,55.7,44.3,56.3,45,56.3z"></path></svg></g></g></svg>