<svg xmlns="http://www.w3.org/2000/svg" xmlns:xlink="http://www.w3.org/1999/xlink" width="1200" height="1200" viewBox="0 0 1200 1200"><g><g transform="translate(600 600) scale(0.69 0.69) rotate(-15) translate(-600 -600)" style="fill:#000000"><svg fill="#000000" xmlns="http://www.w3.org/2000/svg" xmlns:xlink="http://www.w3.org/1999/xlink" version="1.1" x="0px" y="0px" viewBox="0 0 91 91" enable-background="new 0 0 91 91" xml:space="preserve"><g><g><path d="M13.489,48.768c-0.343,0.306-0.606,0.689-0.755,1.121c-0.823,2.394-1.084,15.351,0.204,17.603    c0.911,1.597,28.942,22.733,33.349,22.99c0.102,0.007,0.203,0.014,0.316,0.014c1.645,0,5.349-1.299,30.887-23.302    c0.509-0.437,0.833-0.717,0.939-0.806c0.615-0.513,1.763-1.47,2.095-8.919c0.358-7.984-0.98-9.318-1.552-9.89    c-1.303-1.305-17.13-11.384-23.017-14.584c0.095-1.385,0.191-2.861,0.289-4.458C57.616,6.433,56.72,4.881,56.288,4.133    c-0.529-0.914-1.767-3.056-11.836-3.056c-2.616,0-7.276,0.162-9.102,1.245c-1.197,0.708-1.454,1.981-1.539,2.4    c-0.597,2.958,0.505,16.488,1.941,28.356C32.753,34.915,17.185,44.627,13.489,48.768z M38.953,6.774    c1.133-0.175,3.066-0.338,5.499-0.338c3.749,0,6.094,0.376,7.113,0.668c0.552,6.004-1.427,35.48-2.457,41.496    c-0.665,0.139-1.754,0.277-3.087,0.277c-1.225,0-2.058-0.114-2.539-0.221C42.068,42.794,38.649,13.388,38.953,6.774z     M39.115,52.091c0.393,0.531,1.589,2.146,6.906,2.146c2.532,0,5.856-0.329,7.301-1.891c0.274-0.298,0.593-0.645,0.968-2.563    c0.225,0.475,0.381,0.988,0.438,1.511c0.104,0.965-0.062,2.332-1.452,3.375c-3.217,2.41-11.04,3.41-15.497-0.585    c-1.166-1.047-1.562-2.192-1.21-3.503c0.252-0.942,0.836-1.746,1.446-2.304C38.424,50.292,38.8,51.666,39.115,52.091z     M36.499,38.883c0.18,1.303,0.36,2.557,0.542,3.736c-2.583,1.04-4.859,3.632-5.647,6.574c-0.872,3.261,0.152,6.495,2.809,8.878    c3.188,2.856,7.451,4.101,11.597,4.101c4.047,0,7.982-1.187,10.693-3.219c2.62-1.967,3.92-4.969,3.563-8.24    c-0.35-3.193-2.253-6.074-4.906-7.559c0.12-1.24,0.245-2.646,0.374-4.264c5.052,2.968,14.427,8.835,18.174,11.395    c-4.721,4.088-22.95,18.212-27.128,20.543c-4.245-2.136-21.918-15.296-27.502-20.061C22.833,47.789,32.1,41.661,36.499,38.883z     M17.422,56.373c2.325,1.915,5.822,4.629,11.104,8.55C43.939,76.365,45.623,76.365,46.63,76.365c1.118,0,2.386,0,17.158-11.354    c0.099-0.077,6.959-5.354,11.421-9.031c-0.058,2.628-0.308,5.482-0.64,6.659c-0.157,0.135-0.35,0.301-0.577,0.495    C53.487,80.801,47.888,84.322,46.465,85.022c-4.344-1.882-25.332-17.095-28.806-20.237C17.42,63.32,17.347,59.537,17.422,56.373z"></path></g></g><circle cx="66.212" cy="50.391" r="2.442"></circle></svg></g></g></svg>